<svg xmlns="http://www.w3.org/2000/svg" viewBox="0 0 410 404"><path fill="#41d1ff" d="M404.4 40.3 216.5 388.2c-5.4 9.6-19.3 9.7-24.9.2L5.5 40.3c-5.9-10.2 1.7-22.8 13.1-21.2l186.2 26.6a14.6 14.6 0 0 0 4.1 0l182.4-26.5c11.4-1.7 19 11 13 21.2Z"/><path fill="#bd34fe" d="M292.3.2 156.7 20.6a7.3 7.3 0 0 0-6.2 8.3l23.7 168.2a7.3 7.3 0 0 0 9.3 5.9l46-12.5a7.3 7.3 0 0 1 9.3 5.9l13.7 96.7a7.3 7.3 0 0 0 13.3 3.1L403.3 13.5c2.8-5.5-1.7-11.9-7.9-10.9L292.3.2Z"/><path fill="#ffd33d" d="M215.6 113.8 279.1 102a7.3 7.3 0 0 0 5.9-8.3l-7.4-57a7.3 7.3 0 0 0-8.3-6.2l-63.5 10.9a7.3 7.3 0 0 0-5.9 8.3l7.4 57a7.3 7.3 0 0 0 8.3 6.2Z"/></svg>
